<svg id="Layer_1" data-name="Layer 1" xmlns="http://www.w3.org/2000/svg" viewBox="0 0 88.6 88.6"><defs><style>.cls-1{fill:#fff;}</style></defs><title>icon-linked</title><circle cx="44.3" cy="44.3" r="44.3"/><path class="cls-1" d="M49.33,38.6l.45-.69A9.64,9.64,0,0,1,53.2,34.8a11.3,11.3,0,0,1,5.37-1.42,15.73,15.73,0,0,1,5.69.8A8.84,8.84,0,0,1,69,38.11,13.49,13.49,0,0,1,70.69,43,26.18,26.18,0,0,1,71,46.3c.07,2.53.07,5.06.08,7.58,0,4.11,0,8.21,0,12.31v.49H61.34c-.44,0-.44,0-.44-.44,0-5.65,0-11.3,0-16.95a10.88,10.88,0,0,0-.72-4.3,4.2,4.2,0,0,0-3.68-2.67,7.43,7.43,0,0,0-2.93.25,4.76,4.76,0,0,0-3.26,3.2,10,10,0,0,0-.6,3.32c0,5.7,0,11.39-.07,17.09,0,.57.06.5-.49.5h-9.2c-.44,0-.44,0-.44-.43q0-15.84,0-31.67c0-.44,0-.45.45-.45h8.82c.46,0,.46,0,.46.47v3.65c0,.11,0,.22,0,.34Z"/><path class="cls-1" d="M23.1,66.68V34.58c0-.45,0-.45.46-.45h9.2c.48,0,.48,0,.48.49v31.6c0,.46,0,.46-.45.46H23.1Z"/><path class="cls-1" d="M28.19,18a5.9,5.9,0,1,1-5.91,5.86A5.87,5.87,0,0,1,28.19,18Z"/></svg>