<svg id="Layer_1" data-name="Layer 1" xmlns="http://www.w3.org/2000/svg" viewBox="0 0 88.6 88.6"><defs><style>.cls-1{fill:#fff;}</style></defs><title>icon-insta</title><circle cx="44.3" cy="44.3" r="44.3"/><path class="cls-1" d="M19,55.47V33c.05-.24.1-.49.14-.74A15,15,0,0,1,34.26,19q10,0,20,0a15.49,15.49,0,0,1,2.36.13,15,15,0,0,1,12.88,15c.07,6.73.08,13.47,0,20.21A15,15,0,0,1,54.2,69.53c-6.79,0-13.59,0-20.38,0a14.88,14.88,0,0,1-14-10.35A34.76,34.76,0,0,1,19,55.47Zm5.23-11.14c0,3.38,0,6.77,0,10.15a9.81,9.81,0,0,0,10,9.91q10,0,20,0a9.83,9.83,0,0,0,10-10q0-10.11,0-20.21a9.5,9.5,0,0,0-.09-1.51,9.82,9.82,0,0,0-9.89-8.44c-6.57,0-13.14,0-19.7,0-6.18,0-10.37,4.16-10.39,10.32C24.23,37.79,24.24,41.06,24.23,44.33Z"/><path class="cls-1" d="M44.26,31.18A13.1,13.1,0,1,1,31.17,44.35,13.15,13.15,0,0,1,44.26,31.18Zm7.89,13.11a7.87,7.87,0,1,0-7.89,7.92A7.86,7.86,0,0,0,52.15,44.29Z"/><path class="cls-1" d="M60.49,31.36a3.17,3.17,0,1,1-3.13-3.18A3.14,3.14,0,0,1,60.49,31.36Z"/></svg>