<?xml version="1.0" encoding="utf-8"?>
<!-- Generator: Adobe Illustrator 23.1.0, SVG Export Plug-In . SVG Version: 6.00 Build 0)  -->
<svg version="1.1" id="post_its" xmlns="http://www.w3.org/2000/svg" xmlns:xlink="http://www.w3.org/1999/xlink" x="0px" y="0px"
	 viewBox="0 0 411.2 387.6" style="enable-background:new 0 0 411.2 387.6;" xml:space="preserve">
<style type="text/css">
	.st0{fill:#FFFFFF;stroke:#000000;stroke-miterlimit:10;}
	.st1{fill:none;stroke:#000000;stroke-miterlimit:10;}
	.st2{fill:#00FFC8;stroke:#000000;stroke-miterlimit:10;}
</style>
<title>postit4</title>
<path class="st0" d="M206.2,347.1h-137c0,0,3.8-38.6,5.2-79.1s-0.4-74-0.2-80.5c0.6-14.8,3-41.7,3-41.7s2.9-22.4,13.8-31.2
	S140.4,82.2,191.2,73s55.5-8.3,55.5-8.3H340c6.3,49.1-4.3,107.6-6.3,147.9s2.2,53.3,3.7,132.4L206.2,347.1"/>
<path class="st1" d="M91,114.6c0,0,24.1-2.6,42.4,12.1c0,0,12.3-34.3,69.2-55.8"/>
<path class="st2" d="M251.7,76.8c0.1,0.5,2.7,9.4-2.6,15.1c-3.6,4-8.7,4.3-10.6,4.4c-4.8,0.3-9.5-1.4-13.1-4.6
	c-4.7-4.4-7.1-12-4.3-18.4c1.7-3.5,4.6-6.3,8.1-7.8c3-1.2,6.3-1.6,9.5-1.2"/>
<line class="st1" x1="215.9" y1="102.9" x2="224.5" y2="90.9"/>
<line class="st1" x1="215.9" y1="102.9" x2="227.5" y2="93.3"/>
<path class="st2" d="M263.1,63.3c0.3,6.4-4.7,11.8-11.1,12.1c-0.6,0-1.2,0-1.8-0.1c-4.4-0.6-10-4.8-10.2-11.2
	c-0.6-6.3,4-12,10.3-12.6c6.3-0.6,12,4,12.6,10.3C263,62.3,263.1,62.8,263.1,63.3L263.1,63.3z"/>
<path class="st1" d="M227.5,70.6c2.9,0.4,5.8-0.4,8.1-2.1c2.3-1.7,4-4.2,4.6-7.1"/>
<path class="st1" d="M244.8,86.3c-1.6,1.6-2.1,1.7-2.2,1.6c-0.7-0.5,1.6-7.2,7.3-10.5c1.9-1.1,3.9-2,5.9-2.8"/>
<path d="M120.2,202.8l-3.7-0.2l0.1-1.2l8.8,0.4l-0.1,1.2l-3.7-0.2l-0.5,9.9l-1.4-0.1L120.2,202.8z"/>
<path d="M127.7,201.1l1.4,0.1l-0.2,3.3l-0.2,2l0,0c0.8-1,2-1.5,3.2-1.5c1.9,0.1,2.8,1.3,2.7,3.5l-0.3,5.1l-1.4-0.1l0.3-4.9
	c0.1-1.6-0.4-2.3-1.8-2.4c-1,0-1.7,0.4-2.7,1.4l-0.3,5.8l-1.4-0.1L127.7,201.1z"/>
<path d="M137.1,209.5c0-2.3,1.9-4.1,4.2-4.1c0.1,0,0.2,0,0.2,0c2,0,3.6,1.5,3.6,3.5c0,0.2,0,0.4,0,0.6c0,0.3,0,0.6-0.1,0.8l-7-0.4
	l0.1-1.1l6.1,0.3l-0.4,0.4c0.1-2-0.8-3-2.3-3.1c-1.6,0-3,1.2-3,2.8c0,0.1,0,0.2,0,0.2c-0.2,1.6,0.9,3.1,2.6,3.4c0.2,0,0.3,0,0.5,0
	c0.9,0,1.8-0.2,2.6-0.7l0.5,0.9c-1,0.6-2.1,0.9-3.2,0.8c-2.3,0-4.2-1.8-4.2-4.1C137.1,209.8,137.1,209.6,137.1,209.5z"/>
<path d="M157.3,210.5c0.1-2.7,2-4.3,3.9-4.2c0.9,0.1,1.8,0.5,2.4,1.2l0,0V206l0.2-3.2l1.4,0.1l-0.6,12.1l-1.1-0.1l-0.1-1.1h-0.1
	c-0.7,0.7-1.7,1.1-2.8,1.1C158.5,214.9,157.2,213.3,157.3,210.5z M163.4,212.7l0.2-4.1c-0.5-0.6-1.3-1-2.1-1.1
	c-1.4-0.1-2.6,1.1-2.7,3s0.8,3.2,2.3,3.3C161.9,213.8,162.8,213.4,163.4,212.7L163.4,212.7z"/>
<path d="M167.6,211c0-2.3,1.9-4.1,4.2-4.1c0.1,0,0.1,0,0.2,0c2,0,3.6,1.5,3.6,3.5c0,0.2,0,0.4,0,0.6c0,0.3,0,0.6-0.1,0.9l-7-0.4
	v-1.1l6.1,0.3l-0.4,0.4c0.1-2-0.8-3-2.3-3c-1.6-0.1-2.9,1.2-3,2.8c0,0.1,0,0.2,0,0.3c-0.2,1.6,0.9,3.1,2.6,3.4c0.2,0,0.3,0,0.5,0
	c0.9,0,1.8-0.2,2.6-0.7l0.5,0.9c-1,0.6-2.1,0.9-3.2,0.8c-2.3,0-4.2-1.9-4.2-4.2C167.6,211.3,167.6,211.1,167.6,211z"/>
<path d="M177.7,214.6l0.7-0.9c1,0.8,2.2,1.3,3.5,1.3c1.4,0.1,2.1-0.5,2.1-1.2s-0.3-1.1-2.5-1.7s-3.2-1.3-3.1-2.6s1.3-2.3,3.5-2.2
	c1.2,0.1,2.3,0.5,3.3,1.2l-0.7,0.9c-0.8-0.6-1.7-0.9-2.7-1c-1.4-0.1-1.9,0.5-2,1.1s0.7,1.1,2.3,1.5c2.7,0.7,3.3,1.4,3.3,2.7
	s-1.4,2.4-3.8,2.3C180.2,216,178.9,215.4,177.7,214.6z"/>
<path d="M192.4,209.3l-3.8-0.2l0.1-1.1l5.2,0.3l-0.4,8.3l-1.4-0.1L192.4,209.3z M192,205.3c0-0.6,0.5-1.1,1.2-1.1
	c0.6,0,1.1,0.5,1.1,1.2s-0.5,1.1-1.2,1.1c0,0,0,0,0,0C192.5,206.4,192,205.9,192,205.3C192,205.3,192,205.3,192,205.3L192,205.3z"/>
<path d="M199.7,208.5l1.2,0.1v2l0,0c0.8-1.3,2.3-2,3.8-2c0.6,0,1.1,0.2,1.6,0.4l-0.4,1.2c-0.5-0.2-1-0.3-1.5-0.4
	c-1.2-0.1-2.4,0.5-3.5,2.2l-0.2,4.8l-1.4-0.1L199.7,208.5z"/>
<path d="M208.4,213c0-2.3,1.9-4.1,4.2-4.1c0.1,0,0.2,0,0.2,0c2,0,3.6,1.5,3.6,3.5c0,0.2,0,0.4,0,0.6c0,0.3,0,0.6-0.1,0.9l-7-0.4
	l0.1-1.1l6.1,0.3l-0.4,0.4c0.1-2-0.8-3-2.3-3c-1.6-0.1-3,1.2-3,2.8c0,0.1,0,0.2,0,0.2c-0.2,1.6,0.9,3.1,2.6,3.4c0.2,0,0.3,0,0.5,0
	c0.9,0,1.8-0.2,2.6-0.7l0.5,0.9c-1,0.6-2.1,0.9-3.2,0.8c-2.3,0-4.2-1.8-4.3-4.1C208.4,213.3,208.4,213.2,208.4,213z"/>
<path d="M231.1,215.1l0.2-3.9l-2.4-0.1l0.1-1.1h2.4l0.3-2.6l1.2,0.1l-0.1,2.6l4,0.2l-0.1,1.1l-4-0.2l-0.2,3.9
	c-0.1,1.5,0.4,2.3,2,2.3c0.7,0,1.4-0.1,2-0.3l0.3,1.1c-0.8,0.3-1.7,0.4-2.6,0.4C231.7,218.6,231,217.1,231.1,215.1z"/>
<path d="M238.8,214.6c0.2-2.2,2.3-3.9,4.5-3.6s3.9,2.3,3.6,4.5c-0.2,2.1-2.1,3.7-4.3,3.6c-2.2-0.1-4-1.9-3.9-4.1
	C238.8,214.9,238.8,214.7,238.8,214.6z M245.5,214.9c0.1-1.9-0.9-3.2-2.5-3.3s-2.7,1.1-2.8,3s0.9,3.2,2.5,3.3
	S245.4,216.8,245.5,214.9z"/>
<path d="M260,211.5h1.1l0.1,1.1h0c0.8-0.7,1.8-1.1,2.9-1.1c2.2,0.1,3.3,1.8,3.2,4.4c-0.1,2.8-2,4.4-4,4.3c-0.9-0.1-1.8-0.5-2.4-1.2
	l0,0v1.6l-0.1,2.8l-1.4-0.1L260,211.5z M265.9,215.8c0.1-1.8-0.5-3.1-2.2-3.1c-0.9,0-1.8,0.4-2.5,1.1l-0.2,4.1
	c0.6,0.6,1.3,1,2.1,1.1C264.6,219,265.8,217.8,265.9,215.8L265.9,215.8z"/>
<path d="M269.6,218.1c0.1-1.9,1.9-2.7,6.1-2.8c0.1-1.1-0.7-2.1-1.8-2.2c-0.1,0-0.2,0-0.3,0c-1,0-2.1,0.3-2.9,0.8l-0.5-1
	c1.1-0.7,2.4-1,3.7-1c1.7-0.1,3.1,1.2,3.2,2.9c0,0.2,0,0.4,0,0.7l-0.3,5.1l-1.2-0.1l-0.1-1.1h0c-1,0.7-2.1,1.1-3.3,1.2
	C270.8,220.5,269.5,219.6,269.6,218.1z M275.6,218.4l0.1-2.1c-3.5,0.1-4.6,0.7-4.7,1.8s0.8,1.4,1.7,1.4
	C273.8,219.4,274.8,219.1,275.6,218.4L275.6,218.4z"/>
<path d="M279.6,219.6l0.7-0.9c1,0.8,2.2,1.3,3.5,1.3c1.4,0.1,2.1-0.5,2.1-1.2s-0.3-1.1-2.5-1.6s-3.2-1.3-3.1-2.6s1.3-2.3,3.5-2.2
	c1.2,0.1,2.3,0.5,3.3,1.2l-0.7,0.9c-0.8-0.6-1.7-1-2.7-1c-1.4-0.1-1.9,0.5-2,1.1s0.7,1,2.3,1.5c2.7,0.7,3.3,1.4,3.3,2.7
	s-1.4,2.4-3.8,2.3C282.1,221,280.7,220.5,279.6,219.6z"/>
<path d="M289.8,220.2l0.7-0.9c1,0.8,2.2,1.3,3.5,1.3c1.4,0.1,2.1-0.5,2.1-1.2s-0.3-1.1-2.5-1.6s-3.2-1.3-3.1-2.6s1.3-2.3,3.5-2.2
	c1.2,0.1,2.3,0.5,3.3,1.2l-0.7,0.9c-0.8-0.6-1.7-1-2.7-1c-1.4-0.1-1.9,0.5-2,1.1s0.7,1.1,2.3,1.5c2.7,0.7,3.3,1.4,3.3,2.7
	s-1.4,2.4-3.8,2.3C292.3,221.6,290.9,221,289.8,220.2z"/>
<path d="M118,229.9l0.2-3.9l-2.3-0.1v-1.1h2.4l0.3-2.6l1.2,0.1l-0.1,2.6l4,0.2l-0.1,1.1l-4-0.2l-0.2,3.9c-0.1,1.5,0.4,2.3,2,2.3
	c0.7,0,1.4-0.1,2-0.3l0.3,1c-0.8,0.3-1.7,0.4-2.6,0.4C118.6,233.3,117.9,231.9,118,229.9z"/>
<path d="M126.7,221.4l1.4,0.1l-0.2,3.3l-0.2,1.9l0,0c0.8-0.9,1.9-1.5,3.2-1.5c1.9,0.1,2.8,1.3,2.7,3.5l-0.3,5.1l-1.3-0.1l0.2-4.9
	c0.1-1.6-0.4-2.3-1.8-2.4c-1,0-1.7,0.4-2.7,1.4l-0.3,5.8l-1.4-0.1L126.7,221.4z"/>
<path d="M136.2,231.9c0.1-1.9,1.9-2.7,6.1-2.8c0.1-1.1-0.7-2.1-1.8-2.2c-0.1,0-0.2,0-0.3,0c-1,0-2.1,0.3-2.9,0.8l-0.5-1
	c1.1-0.7,2.4-1,3.7-1c1.7-0.1,3.1,1.2,3.2,2.9c0,0.2,0,0.4,0,0.7l-0.3,5.1l-1.2-0.1l-0.1-1.1h-0.1c-0.9,0.7-2.1,1.1-3.3,1.2
	C137.3,234.3,136.1,233.3,136.2,231.9z M142.2,232.1l0.1-2.1c-3.6,0.1-4.6,0.7-4.7,1.8c-0.1,0.9,0.8,1.4,1.7,1.4
	C140.3,233.2,141.4,232.8,142.2,232.1L142.2,232.1z"/>
<path d="M148.5,231.4l0.2-3.9l-2.3-0.1l0.1-1h2.4l0.3-2.6l1.2,0.1l-0.1,2.6l4,0.2l-0.1,1.1l-4-0.2l-0.1,3.9c-0.1,1.5,0.4,2.3,2,2.3
	c0.7,0,1.4-0.1,2-0.3l0.3,1.1c-0.8,0.3-1.7,0.4-2.6,0.4C149.1,234.9,148.4,233.4,148.5,231.4z"/>
<path d="M166.5,231.4c0.2-2.2,2.3-3.9,4.5-3.6s3.9,2.3,3.6,4.5c-0.2,2.2-2.1,3.8-4.3,3.6c-2.2-0.1-4-2-3.9-4.2
	C166.5,231.6,166.5,231.5,166.5,231.4z M173.2,231.7c0.1-1.9-0.9-3.2-2.5-3.3s-2.7,1.1-2.8,3s0.9,3.2,2.5,3.3
	S173.1,233.6,173.2,231.7L173.2,231.7z"/>
<path d="M177.4,227.8l1.2,0.1v1.4h0.1c0.8-0.9,2-1.4,3.2-1.4c2,0.1,2.8,1.3,2.7,3.5l-0.3,5.1l-1.4-0.1l0.3-4.9
	c0.1-1.6-0.4-2.3-1.8-2.4c-1-0.1-1.7,0.4-2.7,1.3l-0.3,5.8L177,236L177.4,227.8z"/>
<path d="M199.5,234l0.2-3.9l-2.3-0.1v-1.1h2.4l0.3-2.6l1.2,0.1l-0.1,2.6l4.1,0.2l-0.1,1.1l-4-0.2l-0.2,3.9c-0.1,1.5,0.4,2.3,2,2.3
	c0.7,0,1.4-0.1,2-0.3l0.3,1c-0.8,0.3-1.7,0.4-2.6,0.4C200.1,237.4,199.4,236,199.5,234z"/>
<path d="M207.2,233.4c0.2-2.2,2.2-3.9,4.5-3.6c2.2,0.2,3.9,2.2,3.6,4.5c-0.2,2.2-2.1,3.8-4.3,3.7c-2.2-0.1-4-2-3.9-4.2
	C207.2,233.6,207.2,233.5,207.2,233.4z M213.9,233.8c0.1-1.9-0.9-3.2-2.5-3.3s-2.7,1.1-2.8,3s0.9,3.2,2.5,3.3
	S213.8,235.6,213.9,233.8z"/>
<path d="M230,235.5l0.2-3.9l-2.3-0.1l0.1-1h2.4l0.3-2.6l1.2,0.1l-0.1,2.6l4,0.2l-0.1,1.1l-4-0.2l-0.2,3.9c-0.1,1.5,0.4,2.3,2,2.4
	c0.7,0,1.4-0.1,2-0.3l0.3,1.1c-0.8,0.3-1.7,0.4-2.6,0.4C230.6,238.9,229.9,237.5,230,235.5z"/>
<path d="M238.8,227l1.4,0.1l-0.2,3.3l-0.2,1.9h0.1c0.8-0.9,1.9-1.5,3.1-1.5c2,0.1,2.8,1.3,2.7,3.5l-0.3,5.1l-1.4-0.1l0.2-4.9
	c0.1-1.6-0.4-2.3-1.8-2.4c-1-0.1-1.7,0.4-2.7,1.4l-0.3,5.8l-1.4-0.1L238.8,227z"/>
<path d="M248.1,235.4c0-2.3,1.9-4.1,4.2-4.1c0.1,0,0.1,0,0.2,0c2,0,3.6,1.5,3.6,3.5c0,0.2,0,0.4,0,0.6c0,0.3-0.1,0.6-0.1,0.8l-7-0.3
	l0.1-1.1l6.1,0.3l-0.4,0.4c0.1-2-0.8-3-2.3-3.1c-1.6,0-3,1.2-3,2.8c0,0.1,0,0.2,0,0.2c-0.2,1.6,0.9,3.1,2.6,3.4c0.2,0,0.3,0,0.5,0
	c0.9,0,1.8-0.2,2.6-0.7l0.5,0.9c-1,0.6-2.1,0.9-3.2,0.8c-2.3,0-4.2-1.8-4.2-4.1C248.1,235.7,248.1,235.6,248.1,235.4z"/>
<path d="M262.6,233.2l-3.8-0.2l0.1-1.1l5.2,0.3l-0.4,8.3l-1.4-0.1L262.6,233.2z M262.3,229.2c0-0.6,0.5-1.1,1.2-1.1
	c0.6,0,1.1,0.5,1.1,1.2s-0.5,1.1-1.2,1.1c0,0,0,0,0,0c-0.6,0-1.1-0.5-1.1-1C262.3,229.3,262.3,229.2,262.3,229.2L262.3,229.2z"/>
<path d="M270,232.4l1.2,0.1v2l0,0c0.8-1.3,2.3-2,3.8-2c0.6,0,1.1,0.2,1.6,0.4l-0.4,1.2c-0.5-0.2-1-0.3-1.5-0.4
	c-1.2-0.1-2.4,0.5-3.5,2.2l-0.2,4.8l-1.4-0.1L270,232.4z"/>
<path d="M114.9,249.3c0.1-2.8,2.3-4.2,4.8-4.1c1.1,0,2.2,0.5,2.9,1.4l-0.7,0.9c-0.6-0.6-1.4-0.9-2.2-1c-1.7-0.1-3.2,1.2-3.4,2.9
	c-0.1,1.7,1.2,3.2,2.9,3.4c0,0,0,0,0.1,0c0.9,0,1.9-0.3,2.6-0.9l0.6,0.9c-0.9,0.8-2.1,1.2-3.3,1.1
	C116.6,253.7,114.7,252,114.9,249.3z"/>
<path d="M125.7,241.8l1.4,0.1l-0.2,3.3l-0.2,2h0.1c0.8-0.9,1.9-1.5,3.2-1.5c1.9,0.1,2.8,1.3,2.7,3.5l-0.3,5.1l-1.4-0.1l0.3-4.9
	c0.1-1.6-0.4-2.3-1.8-2.4c-1,0-1.7,0.4-2.7,1.4l-0.3,5.8l-1.4-0.1L125.7,241.8z"/>
<path d="M139.4,247.5l-3.8-0.2l0.1-1.1l5.2,0.3l-0.4,8.3l-1.4-0.1L139.4,247.5z M139,243.5c0-0.6,0.5-1.1,1.2-1.1
	c0.6,0,1.1,0.5,1.1,1.2s-0.5,1.1-1.2,1.1c0,0,0,0,0,0c-0.6,0-1.1-0.5-1.1-1C139,243.5,139,243.5,139,243.5L139,243.5z"/>
<path d="M148.2,252.3l0.4-8.2l-2.9-0.1l0.1-1.1l4.3,0.2l-0.5,9.4c-0.2,0.8,0.4,1.6,1.2,1.8c0.1,0,0.2,0,0.4,0c0.5,0,1.1-0.1,1.6-0.3
	l0.3,1.1c-0.7,0.3-1.5,0.4-2.2,0.4C149,255.3,148.1,254.2,148.2,252.3z"/>
<path d="M155.3,251.3c0.1-2.7,2-4.3,3.9-4.2c0.9,0.1,1.8,0.5,2.4,1.2l0,0v-1.5l0.1-3.2l1.4,0.1l-0.6,12.1l-1.1-0.1l-0.1-1.1h-0.1
	c-0.7,0.7-1.7,1.1-2.8,1.1C156.5,255.6,155.1,254,155.3,251.3z M161.4,253.5l0.2-4.1c-0.5-0.6-1.3-1-2.1-1.1c-1.4-0.1-2.6,1.1-2.7,3
	s0.8,3.2,2.3,3.3C159.9,254.6,160.8,254.2,161.4,253.5L161.4,253.5z"/>
<path d="M167.1,247.7l1.2,0.1v2l0,0c0.8-1.3,2.3-2,3.8-2c0.6,0,1.1,0.2,1.6,0.4l-0.4,1.2c-0.5-0.2-1-0.3-1.5-0.4
	c-1.3-0.1-2.4,0.5-3.5,2.2L168,256l-1.3,0L167.1,247.7z"/>
<path d="M175.8,252.3c0-2.3,1.9-4.1,4.2-4.1c0.1,0,0.2,0,0.2,0c2,0,3.6,1.5,3.6,3.5c0,0.2,0,0.4,0,0.6c0,0.3-0.1,0.6-0.1,0.8l-7-0.4
	l0.1-1.1l6.1,0.3l-0.4,0.4c0.1-2-0.8-3-2.3-3.1c-1.6,0-3,1.2-3,2.8c0,0.1,0,0.2,0,0.2c-0.2,1.6,0.9,3.1,2.6,3.4c0.2,0,0.3,0,0.5,0
	c0.9,0,1.8-0.2,2.6-0.7l0.5,0.9c-1,0.6-2.1,0.9-3.2,0.8c-2.3,0-4.2-1.8-4.2-4.1C175.8,252.6,175.8,252.4,175.8,252.3z"/>
<path d="M186.6,248.7l1.2,0.1l0.1,1.4h0.1c0.8-0.9,2-1.4,3.2-1.4c2,0.1,2.8,1.3,2.7,3.5l-0.3,5.1l-1.4-0.1l0.3-4.9
	c0.1-1.6-0.4-2.3-1.8-2.4c-1-0.1-1.7,0.4-2.7,1.4l-0.3,5.8l-1.4-0.1L186.6,248.7z"/>
</svg>
